<svg width="108" height="52" viewBox="0 0 108 52" fill="none" xmlns="http://www.w3.org/2000/svg">
<mask id="mask0_57258_51931" style="mask-type:alpha" maskUnits="userSpaceOnUse" x="0" y="0" width="108" height="52">
<rect opacity="0.2" width="108" height="52" fill="#FF2121"/>
</mask>
<g mask="url(#mask0_57258_51931)">
</g>
<g clip-path="url(#clip0_57258_51931)">
<path d="M16.115 48.8182C14.88 48.8182 13.7197 48.338 12.8474 47.4643L1.35348 35.9659C0.481185 35.0934 0 33.9327 0 32.6974V7.62118C0 5.07348 2.07289 3 4.61985 3H47.885C49.1188 3 50.2791 3.48132 51.1514 4.35387L62.6465 15.8523C63.5188 16.7248 64 17.8866 64 19.1208V44.197C64 46.7447 61.9271 48.8182 59.3801 48.8182H16.115Z" fill="black"/>
<path d="M47.8864 4.91211H4.62123C3.12553 4.91211 1.91309 6.1249 1.91309 7.62103V32.6973C1.91309 33.4157 2.19872 34.1045 2.70597 34.6131L14.2011 46.1115C14.7095 46.6201 15.3981 46.9046 16.1163 46.9046H59.3815C60.8772 46.9046 62.0897 45.6918 62.0897 44.1957V19.1194C62.0897 18.401 61.804 17.7122 61.2968 17.2036L49.8017 5.70523C49.2932 5.19664 48.6046 4.91211 47.8864 4.91211Z" fill="white"/>
<path d="M20.9354 35.6094C19.7822 35.6094 18.8447 36.5471 18.8447 37.7006V43.2774H19.5416V37.7006C19.5416 36.9312 20.165 36.3065 20.9354 36.3065H55.2761C56.0453 36.3065 56.6699 36.9312 56.6699 37.7006V43.2774H57.3668V37.7006C57.3668 36.5471 56.4293 35.6094 55.2761 35.6094H20.9354Z" fill="black"/>
<path d="M25.2662 41.8084C25.2662 41.8629 25.2318 41.8831 25.1714 41.8831H24.6546C24.5954 41.8831 24.5752 41.8629 24.5752 41.8036V40.3976C24.5752 40.3336 24.5302 40.298 24.4662 40.298H23.1092C23.0487 40.298 23.0143 40.3324 23.0143 40.3976V41.8036C23.0143 41.8629 22.98 41.8831 22.9255 41.8831H22.3981C22.3483 41.8831 22.3281 41.8629 22.3281 41.8084V38.3146C22.3281 38.2601 22.3483 38.2305 22.3981 38.2305H22.9255C22.98 38.2305 23.0143 38.2601 23.0143 38.3146V39.6661C23.0143 39.7313 23.0487 39.761 23.1092 39.761H24.4662C24.5302 39.761 24.5752 39.7313 24.5752 39.6661V38.3146C24.5752 38.2601 24.5954 38.2305 24.6546 38.2305H25.1714C25.2306 38.2305 25.2662 38.2601 25.2662 38.3146V41.8084Z" fill="black"/>
<path d="M26.5124 41.9319C26.1296 41.9319 25.9316 41.6237 25.9316 41.3605V39.1886C25.9316 39.1234 25.9565 39.0938 26.0158 39.0938H26.5124C26.5622 39.0938 26.5965 39.1234 26.5965 39.1886V41.2858C26.5965 41.3451 26.6214 41.3747 26.6913 41.3747H27.6004C27.6596 41.3747 27.6999 41.3451 27.6999 41.2858V39.1886C27.6999 39.1234 27.7248 39.0938 27.7841 39.0938H28.2807C28.3352 39.0938 28.3708 39.1234 28.3708 39.1886V42.3539C28.3708 42.4334 28.3459 42.5081 28.3103 42.5828L27.9725 43.134C27.9429 43.1838 27.8979 43.2135 27.8481 43.2135H27.7829C27.7236 43.2135 27.6988 43.1791 27.6988 43.1245V41.7232C27.6988 41.664 27.6644 41.6391 27.6099 41.6533L26.6558 41.9224C26.6108 41.9319 26.5562 41.9319 26.5112 41.9319" fill="black"/>
<path d="M29.6093 41.9279C29.3059 41.9279 29.0381 41.679 29.0381 41.3565V39.1894C29.0381 39.1253 29.063 39.0957 29.1222 39.0957H29.6236C29.6686 39.0957 29.703 39.1253 29.703 39.1894V41.2866C29.703 41.3458 29.7326 41.3707 29.8025 41.3707H30.7116C30.7708 41.3707 30.8111 41.3458 30.8111 41.2866V39.1894C30.8111 39.1253 30.8313 39.0957 30.8905 39.0957H31.3871C31.4416 39.0957 31.476 39.1253 31.476 39.1894V41.8094C31.476 41.8639 31.4416 41.8841 31.3871 41.8841H30.8905C30.8313 41.8841 30.8111 41.8639 30.8111 41.8046V41.7252C30.8111 41.66 30.7708 41.6363 30.7175 41.6553L29.7634 41.9137C29.7136 41.9291 29.6591 41.9291 29.6093 41.9291" fill="black"/>
<path d="M34.5809 39.6311V41.8078C34.5809 41.8623 34.5454 41.8824 34.4908 41.8824H33.9943C33.935 41.8824 33.9148 41.8623 33.9148 41.803V39.7058C33.9148 39.6418 33.8746 39.6062 33.8153 39.6062H32.9063C32.8363 39.6062 32.8067 39.6418 32.8067 39.7058V41.803C32.8067 41.8623 32.7723 41.8824 32.7273 41.8824H32.2248C32.1655 41.8824 32.1406 41.8623 32.1406 41.8078V39.1877C32.1406 39.1237 32.1655 39.0941 32.2248 39.0941H32.7273C32.7723 39.0941 32.8067 39.1237 32.8067 39.1877V39.2719C32.8067 39.3264 32.8316 39.3513 32.9063 39.3312L33.8556 39.0727C33.9054 39.0633 33.9504 39.0479 34.0002 39.0479C34.3285 39.0479 34.5809 39.3217 34.5809 39.6299" fill="black"/>
<path d="M36.9274 41.2866V39.711C36.9274 39.6411 36.8978 39.6067 36.8278 39.6067H35.9093C35.8394 39.6067 35.8145 39.6411 35.8145 39.711V41.2866C35.8145 41.3459 35.8394 41.3708 35.9093 41.3708H36.8278C36.8978 41.3708 36.9274 41.3459 36.9274 41.2866ZM35.1484 41.3565V40.1046C35.1484 39.8355 35.2634 39.6328 35.5016 39.5036L36.0278 39.1953C36.1369 39.1254 36.2459 39.0957 36.3751 39.0957H36.8326C36.8978 39.0957 36.9274 39.0709 36.9274 39.0116V37.9825C36.9274 37.928 36.9523 37.8877 37.0021 37.8877H37.5093C37.5686 37.8877 37.5935 37.928 37.5935 37.9825V41.8094C37.5935 41.8639 37.5686 41.8841 37.5093 41.8841H37.0021C36.9523 41.8841 36.9274 41.8639 36.9274 41.8047V41.7252C36.9274 41.66 36.8978 41.6363 36.8326 41.6553L35.8738 41.9137C35.8193 41.9292 35.7742 41.9292 35.7256 41.9292C35.4673 41.9386 35.1484 41.7003 35.1484 41.3577" fill="black"/>
<path d="M39.9381 41.2866V39.711C39.9381 39.641 39.9038 39.6067 39.8386 39.6067H38.9201C38.8501 39.6067 38.8253 39.641 38.8253 39.711V41.2866C38.8253 41.3458 38.8501 41.3707 38.9201 41.3707H39.8386C39.9038 41.3707 39.9381 41.3458 39.9381 41.2866ZM38.7352 41.9279C38.4223 41.9279 38.1592 41.6742 38.1592 41.3565V40.1046C38.1592 39.8355 38.273 39.6327 38.5064 39.5035L39.0374 39.1953C39.1464 39.1253 39.2555 39.0957 39.3799 39.0957H40.5177C40.5722 39.0957 40.6018 39.1253 40.6018 39.1894V41.8094C40.6018 41.8639 40.5722 41.8841 40.5177 41.8841H40.0104C39.9559 41.8841 39.9358 41.8639 39.9358 41.8046V41.7252C39.9358 41.66 39.9014 41.6363 39.8362 41.6553L38.8821 41.9137C38.8276 41.9291 38.7826 41.9291 38.7328 41.9291" fill="black"/>
<path d="M41.9344 41.8084C41.9344 41.863 41.9 41.8831 41.8503 41.8831H41.3537C41.2897 41.8831 41.2695 41.863 41.2695 41.8084V39.1884C41.2695 39.1244 41.2897 39.0948 41.3537 39.0948H41.8503C41.9 39.0948 41.9344 39.1244 41.9344 39.1884V41.8084ZM41.9344 38.3894C41.9344 38.4487 41.9 38.4688 41.8503 38.4688H41.3537C41.2897 38.4688 41.2695 38.4487 41.2695 38.3894V37.9816C41.2695 37.927 41.2897 37.8867 41.3537 37.8867H41.8503C41.9 37.8867 41.9344 37.927 41.9344 37.9816V38.3894Z" fill="black"/>
<path d="M43.3276 41.1672V39.2834C43.3276 39.0048 43.4473 38.7914 43.6902 38.6468L44.271 38.3243C44.3753 38.2591 44.4997 38.2295 44.6147 38.2295H45.8461C45.9053 38.2295 45.9362 38.2591 45.9362 38.3184V38.6812C45.9362 38.7357 45.9065 38.7606 45.8461 38.7606H44.1216C44.0624 38.7606 44.0375 38.7962 44.0375 38.8602V41.2561C44.0375 41.3213 44.0624 41.351 44.1216 41.351H45.8959C45.9504 41.351 45.9848 41.3759 45.9848 41.4257C45.9848 41.4802 45.9599 41.5253 45.9053 41.5549L45.4775 41.7932C45.3637 41.8584 45.244 41.8833 45.1243 41.8833H44.0505C43.6973 41.8833 43.3252 41.6296 43.3252 41.1672" fill="black"/>
<path d="M48.1774 41.2866V39.711C48.1774 39.641 48.143 39.6067 48.0778 39.6067H47.1581C47.0882 39.6067 47.0645 39.641 47.0645 39.711V41.2866C47.0645 41.3458 47.0894 41.3707 47.1581 41.3707H48.0778C48.143 41.3707 48.1774 41.3458 48.1774 41.2866ZM46.9756 41.9279C46.6627 41.9279 46.3984 41.6742 46.3984 41.3565V40.1046C46.3984 39.8355 46.5122 39.6327 46.7469 39.5035L47.279 39.1953C47.3881 39.1253 47.4971 39.0957 47.6215 39.0957H48.7593C48.8138 39.0957 48.8435 39.1253 48.8435 39.1894V41.8094C48.8435 41.8639 48.8138 41.8841 48.7593 41.8841H48.2521C48.1976 41.8841 48.1774 41.8639 48.1774 41.8046V41.7252C48.1774 41.66 48.143 41.6363 48.0778 41.6553L47.1238 41.9137C47.0693 41.9291 47.0242 41.9291 46.9744 41.9291" fill="black"/>
<path d="M51.3371 39.5318C51.3371 39.5815 51.3027 39.6064 51.2482 39.6064H50.2693C50.2053 39.6064 50.1804 39.642 50.1804 39.706V41.8032C50.1804 41.8625 50.1413 41.8827 50.0915 41.8827H49.5902C49.5309 41.8827 49.5107 41.8625 49.5107 41.808V39.188C49.5107 39.1228 49.5309 39.0931 49.5902 39.0931H50.0915C50.1413 39.0931 50.1804 39.1228 50.1804 39.188V39.2674C50.1804 39.3219 50.2053 39.3468 50.2693 39.3468C50.2847 39.3468 50.3048 39.3468 50.3238 39.3361L50.6118 39.1476C50.7161 39.0931 50.8263 39.0635 50.9543 39.0635H51.247C51.3016 39.0635 51.3359 39.0931 51.3359 39.1476V39.5306L51.3371 39.5318Z" fill="black"/>
<path d="M53.2184 41.2866V39.711C53.2184 39.6411 53.1888 39.6067 53.1189 39.6067H52.2003C52.1304 39.6067 52.1055 39.6411 52.1055 39.711V41.2866C52.1055 41.3459 52.1304 41.3708 52.2003 41.3708H53.1189C53.1888 41.3708 53.2184 41.3459 53.2184 41.2866ZM51.4395 41.3565V40.1046C51.4395 39.8355 51.5532 39.6328 51.7926 39.5036L52.3189 39.1953C52.4279 39.1254 52.5381 39.0957 52.6673 39.0957H53.1248C53.19 39.0957 53.2196 39.0709 53.2196 39.0116V37.9825C53.2196 37.928 53.2445 37.8877 53.2943 37.8877H53.8015C53.8608 37.8877 53.8857 37.928 53.8857 37.9825V41.8094C53.8857 41.8639 53.8608 41.8841 53.8015 41.8841H53.2943C53.2445 41.8841 53.2196 41.8639 53.2196 41.8047V41.7252C53.2196 41.66 53.19 41.6363 53.1248 41.6553L52.166 41.9137C52.1115 41.9292 52.0664 41.9292 52.0166 41.9292C51.7583 41.9386 51.4406 41.7003 51.4406 41.3577" fill="black"/>
<path d="M7.43429 17.7027C7.15933 17.5414 6.94007 17.3233 6.77889 17.0471C6.6177 16.772 6.53711 16.4685 6.53711 16.1378V9.78572C6.53711 9.71933 6.56081 9.66243 6.60822 9.61738C6.65563 9.57233 6.71133 9.5498 6.77296 9.5498H8.21889C8.28526 9.5498 8.34215 9.57233 8.38718 9.61738C8.43222 9.66243 8.45474 9.71815 8.45474 9.78572V16.0251C8.45474 16.1591 8.49741 16.2705 8.58392 16.3595C8.67044 16.4484 8.78066 16.4922 8.91459 16.4922H12.2248C12.2722 16.4922 12.3113 16.5088 12.3433 16.542C12.3753 16.5752 12.3907 16.6155 12.3907 16.663C12.3907 16.7104 12.3694 16.7554 12.3256 16.7993L11.541 17.4833C11.1913 17.7904 10.7955 17.9445 10.3546 17.9445H8.34215C8.01148 17.9445 7.70926 17.8639 7.43429 17.7027Z" fill="black"/>
<path d="M13.7516 17.7288C13.4897 17.577 13.2835 17.3707 13.1342 17.1087C12.9848 16.8467 12.9102 16.5575 12.9102 16.2386V13.6707C12.9102 13.3992 12.9718 13.1491 13.0962 12.9179C13.2207 12.6879 13.3925 12.5006 13.613 12.3536L14.3679 11.8284C14.6547 11.6316 14.9759 11.5332 15.3303 11.5332H16.8118C17.1342 11.5332 17.4257 11.6079 17.6876 11.7573C17.9496 11.9066 18.1546 12.1141 18.3051 12.3773C18.4545 12.6417 18.5291 12.9321 18.5291 13.251V15.8189C18.5291 16.0904 18.4675 16.3405 18.343 16.5717C18.2186 16.8017 18.0467 16.9878 17.8263 17.1301L17.0713 17.6612C16.7833 17.858 16.461 17.9564 16.103 17.9564H14.6227C14.3039 17.9564 14.0136 17.8805 13.7528 17.7288H13.7516ZM14.8219 16.6689C14.8693 16.7163 14.9238 16.74 14.9866 16.74H16.4503C16.5167 16.74 16.5736 16.7163 16.6186 16.6689C16.6636 16.6215 16.6862 16.5669 16.6862 16.5041V12.9855C16.6862 12.9191 16.6636 12.8622 16.6186 12.8171C16.5736 12.7721 16.5167 12.7496 16.4503 12.7496H14.9866C14.9238 12.7496 14.8681 12.7721 14.8219 12.8171C14.7745 12.8622 14.7507 12.9191 14.7507 12.9855V16.5041C14.7507 16.5669 14.7745 16.6227 14.8219 16.6689Z" fill="black"/>
<path d="M20.9481 17.8731C20.8924 17.834 20.8557 17.7747 20.8367 17.6965L19.1076 11.7937C19.1004 11.7546 19.0957 11.7285 19.0957 11.7167C19.0957 11.6657 19.1123 11.6266 19.1455 11.5981C19.1787 11.5697 19.2237 11.5566 19.2782 11.5566H20.595C20.7561 11.5566 20.8581 11.6373 20.9019 11.7985L22.2412 16.7682L23.5864 11.7985C23.6302 11.6373 23.7321 11.5566 23.8933 11.5566H25.1864C25.2456 11.5566 25.2919 11.5709 25.325 11.5981C25.3582 11.6254 25.3748 11.6645 25.3748 11.7167C25.3748 11.7285 25.3713 11.7534 25.363 11.7937L23.6338 17.6965C23.5864 17.8542 23.4785 17.9324 23.309 17.9324H21.1544C21.0726 17.9324 21.0027 17.9122 20.9481 17.8731Z" fill="black"/>
<path d="M26.7351 17.7347C26.4744 17.5865 26.267 17.3826 26.1153 17.1206C25.9635 16.8586 25.8877 16.5646 25.8877 16.2374V13.6695C25.8877 13.4016 25.9493 13.1526 26.0738 12.9203C26.1982 12.6879 26.3677 12.4994 26.5846 12.3536L27.3395 11.8284C27.6275 11.6316 27.9499 11.5332 28.3078 11.5332H29.7953C30.1105 11.5332 30.3985 11.6067 30.6592 11.7549C30.9212 11.9031 31.1286 12.107 31.2827 12.369C31.4355 12.631 31.5126 12.925 31.5126 13.2522V13.7063C31.5126 14.0252 31.4462 14.3073 31.3123 14.5527C31.1784 14.7993 30.9899 14.989 30.7458 15.123C30.5016 15.2569 30.2184 15.3233 29.896 15.3233H27.7307V16.4745C27.7307 16.5373 27.7544 16.593 27.8018 16.6393C27.8492 16.6867 27.9037 16.7104 27.9665 16.7104H31.3597C31.4024 16.7104 31.4391 16.7258 31.4687 16.7578C31.4984 16.7898 31.5138 16.8242 31.5138 16.8645C31.5138 16.9084 31.496 16.9451 31.4604 16.9759L30.7991 17.5486C30.6498 17.679 30.4827 17.7785 30.2978 17.8497C30.1129 17.9208 29.9185 17.9564 29.7135 17.9564H27.6015C27.2862 17.9564 26.9982 17.8829 26.7363 17.7347H26.7351ZM29.435 14.1663C29.5013 14.1663 29.5582 14.1449 29.6033 14.1011C29.6483 14.0572 29.6708 14.0003 29.6708 13.9303V12.9558C29.6708 12.8894 29.6483 12.8325 29.6033 12.7875C29.5582 12.7424 29.5013 12.7199 29.435 12.7199H27.9653C27.9025 12.7199 27.8468 12.7424 27.8006 12.7875C27.7532 12.8325 27.7295 12.8883 27.7295 12.9558V14.1663H29.435Z" fill="black"/>
<path d="M33.3637 17.808C33.1243 17.6704 32.9359 17.476 32.7996 17.2235C32.6644 16.971 32.5957 16.6805 32.5957 16.3498V13.693C32.5957 13.4215 32.6573 13.1714 32.7818 12.9402C32.9062 12.7102 33.0781 12.5241 33.2985 12.3818L34.0535 11.8507C34.3403 11.6539 34.6615 11.5555 35.0159 11.5555H36.3729V9.19393C36.3729 9.12754 36.3966 9.07063 36.444 9.02558C36.4914 8.98053 36.5459 8.95801 36.6087 8.95801H37.9776C38.044 8.95801 38.1009 8.98053 38.1459 9.02558C38.191 9.07063 38.2135 9.12635 38.2135 9.19393V17.6941C38.2135 17.757 38.191 17.8127 38.1459 17.8589C38.1009 17.9064 38.044 17.9301 37.9776 17.9301H36.7095C36.6467 17.9301 36.591 17.9064 36.5447 17.8589C36.4973 17.8115 36.4736 17.757 36.4736 17.6941V17.4286C35.836 17.6609 35.3714 17.8163 35.0775 17.8945C34.7847 17.9739 34.4861 18.0131 34.1839 18.0131C33.8816 18.0131 33.6031 17.9443 33.3637 17.8056V17.808ZM34.5086 16.6687C34.556 16.7161 34.6105 16.7398 34.6733 16.7398H36.137C36.2034 16.7398 36.2603 16.7161 36.3053 16.6687C36.3504 16.6212 36.3729 16.5667 36.3729 16.5039V12.7552H34.6733C34.6105 12.7552 34.5548 12.7778 34.5086 12.8228C34.4612 12.8679 34.4375 12.9248 34.4375 12.9912V16.5027C34.4375 16.5655 34.4612 16.6212 34.5086 16.6675V16.6687Z" fill="black"/>
<path d="M6.4549 29.6675C6.40749 29.6201 6.38379 29.5656 6.38379 29.5027V21.0025C6.38379 20.9361 6.40749 20.8792 6.4549 20.8342C6.50231 20.7891 6.55683 20.7666 6.61964 20.7666H7.98853C8.0549 20.7666 8.11179 20.7891 8.15683 20.8342C8.20186 20.8792 8.22438 20.9349 8.22438 21.0025V23.8004C8.8146 23.5965 9.25312 23.4577 9.54112 23.3878C9.82794 23.3167 10.1195 23.2811 10.4146 23.2811C10.7097 23.2811 10.9953 23.3499 11.2383 23.4886C11.4801 23.6261 11.6697 23.8205 11.8048 24.073C11.9411 24.3255 12.0087 24.616 12.0087 24.9468V27.6035C12.0087 27.8715 11.9459 28.1204 11.8202 28.3528C11.6946 28.5851 11.5216 28.7725 11.3011 28.9135L10.5462 29.4446C10.2593 29.6414 9.93816 29.7398 9.58379 29.7398H6.62201C6.5592 29.7398 6.50349 29.7161 6.45727 29.6687L6.4549 29.6675ZM9.92512 28.5401C9.99149 28.5401 10.0484 28.5164 10.0934 28.469C10.1385 28.4215 10.161 28.367 10.161 28.3042V24.7926C10.161 24.7263 10.1385 24.6694 10.0934 24.6243C10.0484 24.5793 9.99268 24.5567 9.92512 24.5567H8.46142C8.3986 24.5567 8.3429 24.5793 8.29668 24.6243C8.24927 24.6694 8.22557 24.7263 8.22557 24.7926V28.5413H9.92512V28.5401Z" fill="black"/>
<path d="M17.2475 32.3837C17.1812 32.3837 17.1231 32.3577 17.0769 32.3067C17.0295 32.2557 17.0058 32.1905 17.0058 32.1123V29.3026C16.4108 29.5076 15.9711 29.6452 15.6831 29.7163C15.3963 29.7874 15.1047 29.823 14.8096 29.823C14.5145 29.823 14.2289 29.7542 13.9895 29.6155C13.7501 29.478 13.5616 29.2836 13.4265 29.0311C13.2902 28.7786 13.2227 28.4881 13.2227 28.1573V23.6002C13.2227 23.5338 13.2464 23.4769 13.2938 23.4318C13.3412 23.3868 13.3957 23.3643 13.4585 23.3643H14.8274C14.8938 23.3643 14.9507 23.3868 14.9957 23.4318C15.0407 23.4769 15.0632 23.5338 15.0632 23.6002V28.3103C15.0632 28.3731 15.087 28.4288 15.1344 28.4751C15.1818 28.5213 15.2375 28.5462 15.2991 28.5462H16.8398C16.8872 28.5462 16.9264 28.5308 16.9584 28.4988C16.9904 28.4668 17.0058 28.43 17.0058 28.3873V23.6002C17.0058 23.5338 17.0295 23.4769 17.0769 23.4318C17.1243 23.3868 17.1788 23.3643 17.2416 23.3643H18.6105C18.6769 23.3643 18.7338 23.3868 18.7788 23.4318C18.8238 23.4769 18.8464 23.5338 18.8464 23.6002V30.6315C18.8464 30.8793 18.8084 31.0785 18.7314 31.2302C18.6544 31.382 18.524 31.5183 18.3391 31.6404L17.4241 32.3197C17.3696 32.3624 17.3104 32.3849 17.2475 32.3849V32.3837Z" fill="black"/>
</g>
<defs>
<clipPath id="clip0_57258_51931">
<rect width="64" height="45.8182" fill="white" transform="translate(0 3)"/>
</clipPath>
</defs>
</svg>
