<svg width="113" height="46" viewBox="0 0 113 46" fill="none" xmlns="http://www.w3.org/2000/svg">
<path d="M20.6449 5.93054C19.3206 7.4843 17.2019 8.7098 15.0831 8.53473C14.8183 6.43387 15.8556 4.20171 17.0695 2.82303C18.3937 1.2255 20.7111 0.0875357 22.5871 0C22.8078 2.18839 21.947 4.33302 20.6449 5.93054ZM22.565 8.95052C19.4972 8.77545 16.8708 10.6794 15.4142 10.6794C13.9355 10.6794 11.7064 9.03806 9.27866 9.08183C6.1226 9.12559 3.18725 10.8982 1.57612 13.7212C-1.73443 19.3673 0.715375 27.7269 3.91557 32.3225C5.48256 34.5985 7.35854 37.0932 9.83041 37.0057C12.1699 36.9182 13.0968 35.4957 15.9218 35.4957C18.7689 35.4957 19.5855 37.0057 22.0574 36.9619C24.6175 36.9182 26.2287 34.686 27.7956 32.4101C29.5833 29.8278 30.3117 27.3111 30.3558 27.1798C30.3117 27.1361 25.4121 25.2759 25.3679 19.6736C25.3238 14.9905 29.2302 12.7583 29.4068 12.627C27.1998 9.3882 23.7568 9.03806 22.565 8.95052ZM40.2874 2.60419V36.7212H45.6285V25.0571H53.022C59.7755 25.0571 64.5206 20.4615 64.5206 13.8088C64.5206 7.15604 59.8638 2.60419 53.1986 2.60419H40.2874ZM45.6285 7.06851H51.7861C56.4208 7.06851 59.0693 9.51951 59.0693 13.8306C59.0693 18.1418 56.4208 20.6147 51.764 20.6147H45.6285V7.06851ZM74.2757 36.9838C77.6304 36.9838 80.7423 35.2988 82.1548 32.6289H82.2652V36.7212H87.2089V19.7393C87.2089 14.8154 83.2363 11.6422 77.1228 11.6422C71.4507 11.6422 67.2574 14.8592 67.1029 19.2797H71.9142C72.3115 17.1789 74.2757 15.8002 76.9683 15.8002C80.2347 15.8002 82.0665 17.3102 82.0665 20.0894V21.9715L75.4013 22.3654C69.1996 22.7374 65.8449 25.254 65.8449 29.6308C65.8449 34.0514 69.3099 36.9838 74.2757 36.9838ZM75.7103 32.9353C72.8632 32.9353 71.0535 31.5785 71.0535 29.4995C71.0535 27.3549 72.797 26.1075 76.1296 25.9106L82.0665 25.5385V27.4643C82.0665 30.6594 79.3298 32.9353 75.7103 32.9353ZM93.808 46C99.0165 46 101.466 44.0304 103.607 38.0561L112.987 11.9705H107.558L101.268 32.1256H101.157L94.8673 11.9705H89.2835L98.3324 36.8088L97.8468 38.3187C97.0302 40.8792 95.706 41.8639 93.3445 41.8639C92.9251 41.8639 92.1085 41.8202 91.7775 41.7764V45.8687C92.0865 45.9562 93.4107 46 93.808 46Z" fill="black"/>
</svg>
